<?xml version="1.0" encoding="utf-8"?>
<!-- Generator: Adobe Illustrator 23.0.6, SVG Export Plug-In . SVG Version: 6.00 Build 0)  -->
<svg version="1.1" id="Layer_1" xmlns="http://www.w3.org/2000/svg" xmlns:xlink="http://www.w3.org/1999/xlink" x="0px" y="0px"
	 viewBox="0 0 168.5 34" style="enable-background:new 0 0 168.5 34;" xml:space="preserve">
<style type="text/css">
	.st0{clip-path:url(#SVGID_2_);}
	.st1{clip-path:url(#SVGID_4_);}
	.st2{clip-path:url(#SVGID_6_);}
	.st3{clip-path:url(#SVGID_8_);fill:#F68620;}
	.st4{clip-path:url(#SVGID_10_);fill:#F9F8F8;}
	.st5{clip-path:url(#SVGID_12_);fill:#F68620;}
	.st6{clip-path:url(#SVGID_14_);}
	.st7{clip-path:url(#SVGID_16_);}
	.st8{clip-path:url(#SVGID_18_);fill:#00B2E2;}
	.st9{clip-path:url(#SVGID_20_);fill:#FFFFFF;}
	.st10{clip-path:url(#SVGID_22_);fill:#522773;}
	.st11{clip-path:url(#SVGID_24_);fill:#E12726;}
	.st12{fill:#231F20;}
</style>
<g id="Beeldmerk">
	<g>
		<g>
			<defs>
				<rect id="SVGID_1_" x="2.7" y="8.1" width="38.1" height="18.9"/>
			</defs>
			<clipPath id="SVGID_2_">
				<use xlink:href="#SVGID_1_"  style="overflow:visible;"/>
			</clipPath>
			<g class="st0">
				<g>
					<defs>
						<rect id="SVGID_3_" x="4.3" y="8.1" width="35.1" height="18.9"/>
					</defs>
					<clipPath id="SVGID_4_">
						<use xlink:href="#SVGID_3_"  style="overflow:visible;"/>
					</clipPath>
					<g class="st1">
						<g>
							<defs>
								<rect id="SVGID_5_" x="-94.3" y="-57.3" width="246.6" height="346"/>
							</defs>
							<clipPath id="SVGID_6_">
								<use xlink:href="#SVGID_5_"  style="overflow:visible;"/>
							</clipPath>
							<g class="st2">
								<g>
									<defs>
										<rect id="SVGID_7_" x="4.6" y="8.3" width="34.7" height="18.6"/>
									</defs>
									<clipPath id="SVGID_8_">
										<use xlink:href="#SVGID_7_"  style="overflow:visible;"/>
									</clipPath>
									<path class="st3" d="M39.3,16.8H4.6c0.1,0.1,1.2,1.7,1.3,1.9c0.8,0.9,2.5,3.5,6.9,5.7c3.5,1.7,6,2.6,9.4,2.6h0.4
										c1.5,0,3.1-0.2,5-0.5C34.4,25.5,39.1,17.1,39.3,16.8"/>
								</g>
								<g>
									<defs>
										<rect id="SVGID_9_" x="4.6" y="8.3" width="34.7" height="18.6"/>
									</defs>
									<clipPath id="SVGID_10_">
										<use xlink:href="#SVGID_9_"  style="overflow:visible;"/>
									</clipPath>
									<path class="st4" d="M20.7,8.3h-0.9c-9.2,0.2-13,5.9-13.7,6.7c-1,1.2-1.6,1.8-1.6,1.8l0,0h34.7l0,0c0,0-7.4-8.1-18.2-8.5
										C21,8.3,20.8,8.3,20.7,8.3"/>
								</g>
								<g>
									<defs>
										<rect id="SVGID_11_" x="4.6" y="8.3" width="34.7" height="18.6"/>
									</defs>
									<clipPath id="SVGID_12_">
										<use xlink:href="#SVGID_11_"  style="overflow:visible;"/>
									</clipPath>
									<path class="st5" d="M20.7,8.3h-0.9c-9.2,0.2-13,5.9-13.7,6.7c-1,1.2-1.6,1.8-1.6,1.8l0,0h34.7l0,0c0,0-7.4-8.1-18.2-8.5
										C21,8.3,20.8,8.3,20.7,8.3"/>
								</g>
							</g>
						</g>
					</g>
				</g>
			</g>
		</g>
	</g>
	<g>
		<g>
			<defs>
				<rect id="SVGID_13_" x="2.7" y="8.1" width="38.1" height="18.9"/>
			</defs>
			<clipPath id="SVGID_14_">
				<use xlink:href="#SVGID_13_"  style="overflow:visible;"/>
			</clipPath>
			<g class="st6">
				<g>
					<defs>
						<rect id="SVGID_15_" x="4.3" y="8.1" width="35.1" height="18.9"/>
					</defs>
					<clipPath id="SVGID_16_">
						<use xlink:href="#SVGID_15_"  style="overflow:visible;"/>
					</clipPath>
					<g class="st7">
						<g>
							<defs>
								<rect id="SVGID_17_" x="-94.3" y="-57.3" width="246.6" height="346"/>
							</defs>
							<clipPath id="SVGID_18_">
								<use xlink:href="#SVGID_17_"  style="overflow:visible;"/>
							</clipPath>
							<path class="st8" d="M8.4,15.9c0.4-0.7,4.4-6.1,13.1-5.3c8.7,0.7,14.7,6.1,14.8,6.7c0.1,0.4-4.3,6.6-10.1,7.4
								c-4.7,0.6-7.4-0.1-11.8-2.3s-5.3-3.6-5.7-4.2C8.4,17.6,7.9,16.7,8.4,15.9"/>
						</g>
						<g>
							<defs>
								<rect id="SVGID_19_" x="-94.3" y="-57.3" width="246.6" height="346"/>
							</defs>
							<clipPath id="SVGID_20_">
								<use xlink:href="#SVGID_19_"  style="overflow:visible;"/>
							</clipPath>
							<path class="st9" d="M19.8,10.5c0,0,0.6,0,1.7,0.1c1,0.1,1.8,0.2,1.8,0.2s6.6,2.2,6.9,6.5c0.4,5.2-4,7.4-4,7.4S24,25,22,24.8
								c-2-0.2-3.8-0.8-3.8-0.8s-5-1.6-4.6-7C13.9,11.7,19.8,10.5,19.8,10.5"/>
						</g>
						<g>
							<defs>
								<rect id="SVGID_21_" x="-94.3" y="-57.3" width="246.6" height="346"/>
							</defs>
							<clipPath id="SVGID_22_">
								<use xlink:href="#SVGID_21_"  style="overflow:visible;"/>
							</clipPath>
							<path class="st10" d="M28.5,18.3c-0.1,2.7-3,5.3-6.4,5.2c-3.5-0.1-6.8-2.8-6.9-5.9c-0.1-3.5,3.3-5.4,6.8-5.3
								C25.4,12.4,28.6,15.6,28.5,18.3"/>
						</g>
						<g>
							<defs>
								<rect id="SVGID_23_" x="-94.3" y="-57.3" width="246.6" height="346"/>
							</defs>
							<clipPath id="SVGID_24_">
								<use xlink:href="#SVGID_23_"  style="overflow:visible;"/>
							</clipPath>
							<path class="st11" d="M25,18.1c0,1.2-1.3,2.4-2.9,2.4s-3-1.3-3.1-2.7c-0.2-1.8,1.5-2.4,3.1-2.4C23.6,15.4,25,16.9,25,18.1"/>
						</g>
					</g>
				</g>
			</g>
		</g>
	</g>
</g>
<path class="st12" d="M46.7,21.9c0.6,0,1-0.1,1.2-0.3c0.2-0.2,0.3-0.4,0.3-0.8v-8.8c0-0.4-0.1-0.7-0.3-0.8c-0.2-0.1-0.6-0.2-1.2-0.2
	v-0.4h4.2V11c-0.7,0-1.1,0.1-1.4,0.2c-0.2,0.1-0.3,0.4-0.3,0.8v8.8c0,0.3,0.1,0.6,0.3,0.8c0.2,0.2,0.5,0.3,0.9,0.3h1.7
	c0.8,0,1.5-0.2,2.1-0.7c0.7-0.4,1.2-1.1,1.7-1.9l0.3,0.2l-1.2,2.8h-8.3V21.9z"/>
<path class="st12" d="M64.1,22.3c-0.2,0.2-0.5,0.2-0.8,0.2c-0.3,0-0.6-0.1-0.7-0.3c-0.1-0.2-0.2-0.4-0.2-0.8
	c-0.4,0.3-0.8,0.6-1.2,0.8c-0.5,0.2-1,0.3-1.6,0.3c-0.8,0-1.3-0.2-1.7-0.6c-0.4-0.3-0.6-0.8-0.6-1.3c0-0.7,0.4-1.4,1.3-1.9
	c0.9-0.5,2.1-0.9,3.8-1.2v-1.2c0-0.5-0.1-0.9-0.4-1.2c-0.3-0.3-0.6-0.4-1.1-0.4c-0.6,0-1.1,0.1-1.4,0.3c-0.3,0.2-0.5,0.5-0.6,0.9
	c-0.1,0.2-0.2,0.4-0.2,0.5c-0.1,0.1-0.3,0.2-0.5,0.2c-0.2,0-0.4-0.1-0.5-0.2c-0.1-0.1-0.2-0.3-0.2-0.5c0-0.4,0.3-0.8,0.9-1.1
	c0.7-0.3,1.5-0.5,2.5-0.5c0.7,0,1.3,0.2,1.7,0.6c0.4,0.4,0.6,0.9,0.6,1.6v4.5c0,0.3,0,0.5,0.1,0.6c0,0.2,0.1,0.3,0.3,0.3
	c0.1,0,0.2,0,0.3-0.1c0.1-0.1,0.3-0.2,0.4-0.3l0.1,0.2C64.4,22,64.2,22.2,64.1,22.3 M59.6,18.9c-0.8,0.5-1.2,1.1-1.2,1.8
	c0,0.4,0.1,0.7,0.4,0.9c0.3,0.2,0.7,0.4,1.2,0.4c0.6,0,1-0.1,1.4-0.2c0.3-0.1,0.7-0.4,1.1-0.7v-2.9C61.3,18.2,60.3,18.4,59.6,18.9"
	/>
<path class="st12" d="M65.7,21.9c0.4,0,0.7-0.1,0.9-0.2c0.2-0.1,0.3-0.4,0.3-0.7v-4.7c0-0.4-0.1-0.6-0.3-0.7
	c-0.1-0.1-0.4-0.2-0.8-0.2l-0.1-0.3l2.1-0.6v1.5c0.5-0.4,0.9-0.8,1.2-1c0.6-0.3,1.1-0.5,1.7-0.5c0.4,0,0.8,0.1,1.1,0.3
	c0.4,0.3,0.6,0.6,0.7,1.1c0.4-0.4,0.9-0.7,1.3-1c0.5-0.3,1.1-0.4,1.6-0.4c0.5,0,1,0.2,1.4,0.6c0.3,0.3,0.5,0.8,0.5,1.2V21
	c0,0.3,0.1,0.5,0.3,0.7c0.2,0.1,0.5,0.2,0.9,0.2v0.4h-3.2v-0.4c0.4,0,0.6-0.1,0.8-0.2c0.2-0.1,0.3-0.4,0.3-0.7v-4.5
	c0-0.4-0.1-0.7-0.4-0.9c-0.3-0.3-0.6-0.4-1.1-0.4c-0.4,0-0.8,0.1-1.2,0.3c-0.3,0.2-0.7,0.5-1.1,0.8V21c0,0.3,0.1,0.5,0.3,0.7
	c0.2,0.1,0.5,0.2,0.8,0.2v0.4h-3.1v-0.4c0.4,0,0.7-0.1,0.8-0.2c0.2-0.1,0.3-0.4,0.3-0.7v-4.5c0-0.4-0.1-0.7-0.4-0.9
	c-0.3-0.3-0.6-0.4-1-0.4c-0.5,0-0.9,0.1-1.3,0.3c-0.3,0.2-0.7,0.5-1.1,0.9V21c0,0.3,0.1,0.5,0.3,0.7c0.2,0.1,0.5,0.2,0.9,0.2v0.4
	h-3.2V21.9z"/>
<path class="st12" d="M79.2,24.2c0.4,0,0.7-0.1,0.8-0.2c0.2-0.1,0.3-0.4,0.3-0.7v-7.2c0-0.3-0.1-0.4-0.2-0.6
	c-0.2-0.1-0.4-0.2-0.8-0.2l-0.1-0.2l2.1-0.7v0.9c0.3-0.3,0.6-0.5,0.9-0.6c0.4-0.2,0.9-0.2,1.5-0.2c1.1,0,2,0.4,2.6,1.2
	c0.5,0.7,0.8,1.6,0.8,2.7c0,1.1-0.3,2-0.8,2.7c-0.6,0.8-1.5,1.2-2.6,1.2c-0.6,0-1.1-0.1-1.5-0.3c-0.3-0.1-0.6-0.3-0.9-0.6v1.8
	c0,0.3,0.1,0.6,0.3,0.7c0.2,0.1,0.4,0.2,0.8,0.2v0.4h-3.1V24.2z M81.9,21.4c0.3,0.2,0.8,0.3,1.3,0.3c0.9,0,1.5-0.3,2-1
	c0.4-0.6,0.6-1.4,0.6-2.3c0-0.9-0.2-1.7-0.6-2.3c-0.5-0.7-1.1-1-2-1c-0.5,0-0.8,0.1-1.2,0.2c-0.3,0.1-0.6,0.4-0.8,0.7v4.9
	C81.5,21.1,81.7,21.3,81.9,21.4"/>
<path class="st12" d="M96.1,20.6c-0.4,0.6-0.8,1.1-1.3,1.4c-0.6,0.4-1.3,0.6-2.2,0.6c-1.1,0-2.1-0.4-2.7-1.1c-0.7-0.8-1-1.7-1-3
	c0-1.1,0.3-2.1,1-2.9c0.7-0.8,1.6-1.2,2.7-1.2c1.1,0,1.9,0.3,2.5,1c0.6,0.7,0.9,1.6,0.9,2.8h-6.1c0,1.3,0.3,2.3,0.9,2.9
	c0.5,0.6,1.2,0.8,2.1,0.8c0.6,0,1.2-0.1,1.7-0.4c0.5-0.3,0.9-0.6,1.3-1.2L96.1,20.6z M94.2,15.5c-0.4-0.5-1-0.7-1.7-0.7
	c-0.7,0-1.3,0.3-1.8,0.8c-0.5,0.6-0.8,1.3-0.8,2.1H95C94.9,16.8,94.7,16,94.2,15.5"/>
<path class="st12" d="M103,21.9c0.6,0,1-0.1,1.2-0.3c0.2-0.2,0.3-0.4,0.3-0.8v-8.8c0-0.4-0.1-0.7-0.3-0.8c-0.2-0.1-0.6-0.2-1.2-0.2
	v-0.4h4.2V11c-0.7,0-1.1,0.1-1.4,0.2c-0.2,0.1-0.3,0.4-0.3,0.8v8.8c0,0.3,0.1,0.6,0.3,0.8c0.2,0.2,0.5,0.3,0.9,0.3h1.7
	c0.8,0,1.5-0.2,2.1-0.7c0.7-0.4,1.2-1.1,1.7-1.9l0.3,0.2l-1.2,2.8H103V21.9z"/>
<path class="st12" d="M120.3,22.3c-0.2,0.2-0.5,0.2-0.8,0.2c-0.3,0-0.6-0.1-0.7-0.3c-0.1-0.2-0.2-0.4-0.2-0.8
	c-0.4,0.3-0.8,0.6-1.2,0.8c-0.5,0.2-1,0.3-1.6,0.3c-0.8,0-1.3-0.2-1.7-0.6c-0.4-0.3-0.6-0.8-0.6-1.3c0-0.7,0.4-1.4,1.3-1.9
	c0.9-0.5,2.1-0.9,3.8-1.2v-1.2c0-0.5-0.1-0.9-0.4-1.2c-0.3-0.3-0.6-0.4-1.1-0.4c-0.6,0-1.1,0.1-1.4,0.3c-0.3,0.2-0.5,0.5-0.6,0.9
	c-0.1,0.2-0.2,0.4-0.2,0.5c-0.1,0.1-0.3,0.2-0.5,0.2c-0.2,0-0.4-0.1-0.5-0.2c-0.1-0.1-0.2-0.3-0.2-0.5c0-0.4,0.3-0.8,0.9-1.1
	c0.7-0.3,1.5-0.5,2.5-0.5c0.7,0,1.3,0.2,1.7,0.6c0.4,0.4,0.6,0.9,0.6,1.6v4.5c0,0.3,0,0.5,0.1,0.6c0,0.2,0.1,0.3,0.3,0.3
	c0.1,0,0.2,0,0.3-0.1c0.1-0.1,0.3-0.2,0.4-0.3l0.1,0.2C120.6,22,120.5,22.2,120.3,22.3 M115.9,18.9c-0.8,0.5-1.2,1.1-1.2,1.8
	c0,0.4,0.1,0.7,0.4,0.9c0.3,0.2,0.7,0.4,1.2,0.4c0.6,0,1-0.1,1.4-0.2c0.3-0.1,0.7-0.4,1.1-0.7v-2.9
	C117.5,18.2,116.6,18.4,115.9,18.9"/>
<path class="st12" d="M121.8,21.9c0.3,0,0.6-0.1,0.8-0.2c0.2-0.1,0.3-0.4,0.3-0.7v-5c0-0.3-0.1-0.5-0.2-0.6
	c-0.1-0.1-0.4-0.2-0.8-0.2l-0.1-0.3l2.1-0.8v2l0.2-0.2c0.7-0.6,1.2-1,1.5-1.2c0.6-0.4,1.1-0.6,1.6-0.6c0.2,0,0.4,0.1,0.6,0.2
	c0.2,0.2,0.3,0.3,0.3,0.5c0,0.2-0.1,0.3-0.3,0.5c-0.2,0.2-0.4,0.2-0.6,0.2c-0.1,0-0.3,0-0.4-0.1c-0.1,0-0.1-0.1-0.3-0.2
	c-0.1-0.1-0.2-0.2-0.3-0.2c-0.1,0-0.3,0-0.4,0.1c-0.3,0.1-0.5,0.3-0.8,0.5c-0.2,0.2-0.6,0.5-1.1,0.9V21c0,0.3,0.1,0.5,0.2,0.7
	c0.1,0.1,0.4,0.2,0.9,0.2v0.4h-3.1V21.9z"/>
<path class="st12" d="M135.7,15.7c0.6,0.7,0.9,1.7,0.9,2.8c0,1.1-0.3,2-0.9,2.8c-0.7,0.8-1.6,1.2-2.8,1.2c-1.2,0-2.1-0.4-2.8-1.2
	c-0.6-0.7-0.9-1.7-0.9-2.8c0-1.1,0.3-2.1,0.9-2.8c0.7-0.8,1.6-1.2,2.8-1.2C134.1,14.5,135.1,14.9,135.7,15.7 M130.9,16
	c-0.4,0.7-0.6,1.5-0.6,2.6c0,1,0.2,1.8,0.6,2.5c0.5,0.8,1.1,1.1,2,1.1c0.9,0,1.5-0.4,2-1.1c0.4-0.7,0.6-1.5,0.6-2.5
	c0-1-0.2-1.9-0.6-2.6c-0.5-0.7-1.1-1.1-2-1.1C132.1,14.9,131.4,15.2,130.9,16"/>
<path class="st12" d="M144.2,21.9c-0.6,0.4-1.2,0.6-2,0.6c-1,0-1.8-0.4-2.5-1.1c-0.7-0.7-1-1.6-1-2.7c0-1.3,0.4-2.3,1.2-3.1
	c0.8-0.8,1.7-1.2,2.7-1.2c0.6,0,1.1,0.1,1.6,0.4c0.5,0.2,0.8,0.5,0.9,0.8c0.1,0.3,0.2,0.6,0.1,0.8c-0.1,0.2-0.3,0.3-0.6,0.3
	c-0.2,0-0.4-0.1-0.5-0.2c-0.1-0.1-0.1-0.2-0.2-0.4l-0.1-0.3c-0.2-0.3-0.4-0.6-0.6-0.7c-0.3-0.2-0.6-0.3-1-0.3
	c-0.7,0-1.2,0.3-1.7,0.9c-0.5,0.7-0.7,1.5-0.7,2.6c0,1,0.2,1.9,0.7,2.5c0.5,0.7,1.2,1,2.1,1c0.5,0,0.9-0.1,1.3-0.3
	c0.4-0.2,0.9-0.6,1.4-1.2l0.2,0.1C145,21.1,144.6,21.6,144.2,21.9"/>
<path class="st12" d="M146.9,21.9c0.4,0,0.7-0.1,0.8-0.2c0.2-0.1,0.3-0.4,0.3-0.7v-8.6c0-0.3-0.1-0.6-0.2-0.7
	c-0.1-0.1-0.4-0.2-0.8-0.2l-0.1-0.3l2.1-0.8v5.3c0.5-0.4,0.9-0.8,1.2-0.9c0.5-0.3,1.1-0.5,1.7-0.5c0.7,0,1.2,0.2,1.5,0.5
	c0.4,0.3,0.6,0.9,0.6,1.6V21c0,0.3,0.1,0.5,0.3,0.6c0.2,0.1,0.5,0.2,0.8,0.2v0.4H152v-0.4c0.4,0,0.7-0.1,0.9-0.2
	c0.2-0.1,0.3-0.3,0.3-0.6v-4.2c0-0.5-0.1-0.9-0.3-1.2c-0.3-0.3-0.7-0.4-1.2-0.4c-0.5,0-1,0.1-1.4,0.3c-0.3,0.2-0.7,0.5-1.1,0.9V21
	c0,0.3,0.1,0.5,0.3,0.7c0.2,0.1,0.5,0.2,0.9,0.2v0.4h-3.2V21.9z"/>
<path class="st12" d="M163.8,20.6c-0.4,0.6-0.8,1.1-1.3,1.4c-0.6,0.4-1.3,0.6-2.2,0.6c-1.1,0-2.1-0.4-2.7-1.1c-0.7-0.8-1-1.7-1-3
	c0-1.1,0.3-2.1,1-2.9c0.7-0.8,1.6-1.2,2.7-1.2c1.1,0,1.9,0.3,2.5,1c0.6,0.7,0.9,1.6,0.9,2.8h-6.1c0,1.3,0.3,2.3,0.9,2.9
	c0.5,0.6,1.2,0.8,2.1,0.8c0.6,0,1.2-0.1,1.7-0.4c0.5-0.3,0.9-0.6,1.3-1.2L163.8,20.6z M161.9,15.5c-0.4-0.5-1-0.7-1.7-0.7
	c-0.7,0-1.3,0.3-1.8,0.8c-0.5,0.6-0.8,1.3-0.8,2.1h5.1C162.6,16.8,162.4,16,161.9,15.5"/>
</svg>
