<?xml version="1.0" encoding="UTF-8"?>
<svg width="26px" height="17px" viewBox="0 0 26 17" version="1.1" xmlns="http://www.w3.org/2000/svg" xmlns:xlink="http://www.w3.org/1999/xlink">
    <!-- Generator: Sketch 48.2 (47327) - http://www.bohemiancoding.com/sketch -->
    <title>Group 7</title>
    <desc>Created with Sketch.</desc>
    <defs></defs>
    <g id="Page-1" stroke="none" stroke-width="1" fill="none" fill-rule="evenodd">
        <g id="Group-7" fill="#6249FF" fill-rule="nonzero">
            <path d="M8.35962212,3.23364286 C8.11923922,2.7404 7.627837,2.42857143 7.09105276,2.42857143 C6.55426852,2.42857143 6.0628663,2.7404 5.8224834,3.23364286 L0.149730527,14.8907857 C-0.0700886463,15.3425 -0.0466885407,15.8787286 0.212130809,16.3085857 C0.470241065,16.7384429 0.926897671,17 1.41829989,17 L12.7638056,17 C13.2552079,17 13.7118645,16.7384429 13.9699747,16.3093143 C14.2287941,15.8794571 14.2514851,15.3432286 14.032375,14.8915143 L8.35962212,3.23364286 Z" id="Shape"></path>
            <path d="M19.2074379,0.93925 C18.9269912,0.3638 18.3536886,0 17.7274403,0 C17.1011921,0 16.5278895,0.3638 16.2474428,0.93925 L9.62923107,14.53925 C9.37277537,15.06625 9.40007549,15.69185 9.7020314,16.19335 C10.00316,16.69485 10.5359261,17 11.1092287,17 L24.345652,17 C24.9189546,17 25.4517207,16.69485 25.7528493,16.1942 C26.0548052,15.6927 26.081278,15.0671 25.8256496,14.5401 L19.2074379,0.93925 Z" id="Shape-Copy"></path>
        </g>
    </g>
</svg>