<svg xmlns="http://www.w3.org/2000/svg" viewBox="0 0 118.89 94.56"><defs><style>.cls-1{fill:#414042;}</style></defs><title>Asset 1</title><g id="Layer_2" data-name="Layer 2"><g id="Layer_1-2" data-name="Layer 1"><path class="cls-1" d="M56.34,68.79,44.11,56.57l39.51-39.5L77.5,11,38,50.45,25.77,38.23l-3,2L0,55.8,38.76,94.56Zm-23.12,8,4.48-4.48-6.11-6.12-4.48,4.48-3.22-3.22L28.37,63l-6.12-6.11-4.48,4.48-4.26-4.27,11.21-7.66L45.15,69.84,37.49,81.05Z"/><rect class="cls-1" x="61.46" y="-10.13" width="8.65" height="77.81" rx="4.32" transform="translate(39.62 -38.09) rotate(45)"/><path class="cls-1" d="M107.83,48a27.9,27.9,0,0,0-7.39-2.13,26.72,26.72,0,0,0-11.55.88,25.88,25.88,0,0,0-5.59,2.48c-.6.36-1.18.75-1.76,1.16l-6.12,6.11c-.27.38-.53.77-.78,1.16a25.68,25.68,0,0,0-3.5,8.75,27,27,0,0,0,.77,13.36,28.72,28.72,0,0,0,7.16,11.75l2.33,2.33,37.49-37.49-2.33-2.33A29.16,29.16,0,0,0,107.83,48ZM103.45,62.5l-5.11-5.12L92.22,63.5l5.12,5.12-3.71,3.71-5.12-5.12-6.12,6.12,5.12,5.11L83,82.94a22.91,22.91,0,0,1-2.78-4.68,21.86,21.86,0,0,1-1.69-5.82,18.78,18.78,0,0,1,.58-8.22,15.49,15.49,0,0,1,1.52-3.44,14.56,14.56,0,0,1,2.25-2.9,14.92,14.92,0,0,1,2.55-2,16.22,16.22,0,0,1,5.49-2.17,20.08,20.08,0,0,1,9.92.64A23.11,23.11,0,0,1,108,58Z"/><rect class="cls-1" x="50.33" y="-10.15" width="8.65" height="79.75" rx="4.32" transform="translate(-5.01 47.35) rotate(-45)"/><rect class="cls-1" x="92.9" y="51.35" width="8.65" height="41.19" transform="translate(79.35 -47.68) rotate(45)"/><rect class="cls-1" x="93.91" y="58.06" width="8.66" height="10.66" transform="translate(-16.05 88.03) rotate(-45)"/><rect class="cls-1" x="84.08" y="67.89" width="8.66" height="10.66" transform="translate(-25.88 83.96) rotate(-45)"/></g></g></svg>