<?xml version="1.0" encoding="utf-8"?>
<!-- Generator: Adobe Illustrator 21.0.0, SVG Export Plug-In . SVG Version: 6.00 Build 0)  -->
<svg version="1.1" xmlns="http://www.w3.org/2000/svg" xmlns:xlink="http://www.w3.org/1999/xlink" x="0px" y="0px"
	 viewBox="0 0 168.5 34" style="enable-background:new 0 0 168.5 34;" xml:space="preserve">
<style type="text/css">
	.st0{fill:#00B2E2;}
	.st1{fill:#E12726;}
	.st2{clip-path:url(#SVGID_2_);}
	.st3{clip-path:url(#SVGID_4_);}
	.st4{clip-path:url(#SVGID_6_);}
	.st5{clip-path:url(#SVGID_8_);fill:#F68620;}
	.st6{clip-path:url(#SVGID_8_);fill:#F9F8F8;}
	.st7{clip-path:url(#SVGID_10_);}
	.st8{clip-path:url(#SVGID_12_);}
	.st9{clip-path:url(#SVGID_14_);fill:#00B2E2;}
	.st10{clip-path:url(#SVGID_14_);fill:#FFFFFF;}
	.st11{clip-path:url(#SVGID_14_);fill:#522773;}
	.st12{clip-path:url(#SVGID_14_);fill:#E12726;}
</style>
<g id="Logotype">
	<g>
		<g>
			<g>
				<path class="st0" d="M52.2,24.1c0,0.1-0.1,0.2-0.1,0.2c-0.1,0.1-0.7,0.2-1.4,0.2c-1.2,0-2-0.6-2-2V11.2c0-0.2,0.1-0.2,0.3-0.3
					l1.2-0.3h0.1c0.1,0,0.2,0.1,0.2,0.3v11.5c0,0.7,0.4,0.8,0.8,0.8c0.3,0,0.5-0.1,0.6-0.1c0,0,0.1,0,0.1,0c0.1,0,0.1,0,0.1,0.2
					L52.2,24.1L52.2,24.1z"/>
				<path class="st0" d="M59.9,24.3c-0.5,0.1-1.4,0.3-2.4,0.3c-1.6,0-4.2-0.1-4.2-3c0-2.4,1.4-2.5,3.1-2.8l3.4-0.6v-0.8
					c0-0.6,0-1-0.6-1.2c-0.3-0.1-0.8-0.2-1.6-0.2c-1.4,0-2.6,0.3-3.3,0.5c0,0-0.1,0-0.1,0c-0.1,0-0.2,0-0.2-0.1l-0.2-0.9
					c0,0,0,0,0-0.1c0-0.1,0.1-0.2,0.2-0.2c0.6-0.2,2.1-0.6,3.8-0.6c1.3,0,2.1,0.2,2.7,0.5c0.9,0.5,1,1.4,1,2.3v5.1
					C61.5,23.7,61.2,24,59.9,24.3 M59.8,19.4l-3.1,0.5c-0.8,0.1-1.7,0.2-1.7,1.6c0,1.7,1.4,1.8,2.5,1.8c0.8,0,1.6-0.1,2.2-0.3V19.4z
					"/>
				<path class="st0" d="M78.2,24.3h-1.1c-0.2,0-0.3-0.1-0.3-0.3v-6.6c0-1.2-0.5-1.6-1.6-1.6c-1.5,0-3.1,0.5-3.1,0.5v7.7
					c0,0.2-0.1,0.3-0.3,0.3h-1.1c-0.2,0-0.3-0.1-0.3-0.3v-6.6c0-1.2-0.4-1.6-1.6-1.6c-1.5,0-3.1,0.5-3.1,0.5v7.7
					c0,0.2-0.1,0.3-0.3,0.3h-1.1c-0.2,0-0.3-0.1-0.3-0.3v-7.6c0-0.7,0.1-1,1.1-1.3c0.9-0.3,2.7-0.6,3.9-0.6c1.1,0,1.9,0.2,2.4,0.7
					c0.9-0.3,2.8-0.7,4-0.7c2.2,0,3.2,0.7,3.2,2.6v6.8C78.5,24.2,78.4,24.3,78.2,24.3"/>
				<path class="st0" d="M85.1,24.6c-1.1,0-2-0.2-2.7-0.3l0.2,1.1v2.3c0,0.2-0.1,0.2-0.2,0.3l-1.2,0.3h-0.1c-0.1,0-0.2-0.1-0.2-0.3
					V16.6c0-0.8,0.1-1.1,1-1.4c1-0.3,2.4-0.6,3.6-0.6c3.3,0,3.8,2.1,3.8,5C89.3,22.9,88.4,24.6,85.1,24.6 M85,15.9
					c-1,0-2.5,0.4-2.5,0.4V23c0,0,0.9,0.3,2.3,0.3c2,0,2.6-0.9,2.6-3.7C87.5,16.3,86.7,15.9,85,15.9"/>
				<path class="st0" d="M99.5,20.3c0,0.1-0.1,0.3-0.3,0.3h-6.5c0,1,0.2,1.5,0.6,2c0.5,0.6,1.3,0.8,2.5,0.8c1.1,0,1.8-0.2,2.6-0.5
					c0,0,0.1,0,0.1,0c0.1,0,0.1,0.1,0.2,0.2l0.2,0.7c0,0,0,0.1,0,0.1c0,0.1-0.1,0.2-0.2,0.2c-0.7,0.3-1.9,0.5-3.2,0.5
					c-3.6,0-4.7-1.6-4.7-5c0-3.1,0.7-5,4.3-5c1.9,0,3,0.6,3.6,1.5c0.5,0.8,0.6,2,0.6,3.3V20.3z M97.6,17.3c-0.3-1.1-1-1.5-2.3-1.5
					c-1.4,0-2,0.4-2.3,1.5c-0.2,0.6-0.2,1.3-0.2,1.9l5.1,0C97.8,18.6,97.8,18,97.6,17.3"/>
				<path class="st1" d="M108.1,24.1c0,0.1-0.1,0.2-0.1,0.2c-0.1,0.1-0.7,0.2-1.4,0.2c-1.2,0-2-0.6-2-2V11.2c0-0.2,0.1-0.2,0.3-0.3
					l1.2-0.3h0.1c0.1,0,0.2,0.1,0.2,0.3v11.5c0,0.7,0.4,0.8,0.8,0.8c0.3,0,0.5-0.1,0.6-0.1c0,0,0.1,0,0.1,0c0.1,0,0.1,0,0.1,0.2
					L108.1,24.1L108.1,24.1z"/>
				<path class="st1" d="M115.8,24.3c-0.5,0.1-1.4,0.3-2.4,0.3c-1.6,0-4.2-0.1-4.2-3c0-2.4,1.4-2.5,3.1-2.8l3.4-0.6v-0.8
					c0-0.6,0-1-0.6-1.2c-0.3-0.1-0.8-0.2-1.6-0.2c-1.4,0-2.6,0.3-3.3,0.5c0,0-0.1,0-0.1,0c-0.1,0-0.2,0-0.2-0.1l-0.2-0.9
					c0,0,0,0,0-0.1c0-0.1,0.1-0.2,0.2-0.2c0.6-0.2,2.1-0.6,3.8-0.6c1.3,0,2.1,0.2,2.7,0.5c0.9,0.5,1,1.4,1,2.3v5.1
					C117.4,23.7,117.1,24,115.8,24.3 M115.7,19.4l-3.1,0.5c-0.8,0.1-1.7,0.2-1.7,1.6c0,1.7,1.4,1.8,2.5,1.8c0.8,0,1.6-0.1,2.2-0.3
					V19.4z"/>
				<path class="st0" d="M124.5,16c-1.2,0-2.1,0.1-3,0.3v7.7c0,0.2-0.1,0.3-0.3,0.3h-1.1c0,0-0.3-0.1-0.3-0.3v-7.6
					c0-0.8,0.2-1,0.9-1.3c0.9-0.3,2.4-0.6,3.3-0.6h0.3c0,0,0.1,0,0.1,0c0.1,0,0.2,0.1,0.2,0.3v0.9C124.7,15.9,124.7,16,124.5,16"/>
				<path class="st0" d="M129.8,24.6c-3.8,0-4.3-2.2-4.3-5c0-2.8,0.5-5,4.3-5c3.9,0,4.3,2.2,4.3,5C134.1,22.3,133.7,24.6,129.8,24.6
					 M129.8,15.9c-2.4,0-2.6,1.4-2.6,3.7c0,2.3,0.1,3.7,2.6,3.7c2.5,0,2.6-1.4,2.6-3.7C132.4,17.3,132.3,15.9,129.8,15.9"/>
				<path class="st0" d="M143.3,23.8c0,0.1-0.1,0.2-0.2,0.2c-0.5,0.2-1.7,0.5-2.9,0.5c-3.4,0-4.3-1.6-4.3-5c0-3.4,0.9-5,4.3-5
					c1.1,0,2.4,0.3,2.9,0.5c0.1,0,0.2,0.1,0.2,0.3c0,0,0,0.1,0,0.1l-0.1,0.7c0,0.1-0.1,0.2-0.2,0.2h-0.1c-0.4-0.1-1.4-0.4-2.4-0.4
					c-2.1,0-2.8,0.9-2.8,3.7c0,2.8,0.7,3.7,2.8,3.7c0.9,0,2-0.3,2.4-0.4c0,0,0.1,0,0.1,0c0.1,0,0.2,0.1,0.2,0.2l0.1,0.7
					C143.3,23.8,143.3,23.8,143.3,23.8"/>
				<path class="st0" d="M153,24.3h-1.1c-0.2,0-0.3-0.1-0.3-0.3v-6.7c0-1.1-0.4-1.5-1.6-1.5c-1.6,0-3.1,0.5-3.1,0.5v7.7
					c0,0.2-0.1,0.3-0.3,0.3h-1.1c-0.2,0-0.3-0.1-0.3-0.3V11.2c0-0.2,0.1-0.2,0.3-0.3l1.2-0.3h0.1c0.1,0,0.2,0.1,0.2,0.3V14l-0.2,1.1
					c1-0.3,2.4-0.5,3.5-0.5c2.1,0,3.1,0.7,3.1,2.6v6.9C153.2,24.2,153.1,24.3,153,24.3"/>
				<path class="st0" d="M163.8,20.3c0,0.1-0.1,0.3-0.3,0.3H157c0,1,0.2,1.5,0.6,2c0.5,0.6,1.3,0.8,2.5,0.8c1.1,0,1.8-0.2,2.6-0.5
					c0,0,0.1,0,0.1,0c0.1,0,0.1,0.1,0.2,0.2l0.2,0.7c0,0,0,0.1,0,0.1c0,0.1-0.1,0.2-0.2,0.2c-0.7,0.3-1.9,0.5-3.2,0.5
					c-3.6,0-4.7-1.6-4.7-5c0-3.1,0.7-5,4.3-5c1.9,0,3,0.6,3.6,1.5c0.5,0.8,0.6,2,0.6,3.3V20.3z M161.8,17.3c-0.3-1.1-1-1.5-2.3-1.5
					c-1.4,0-2,0.4-2.3,1.5c-0.2,0.6-0.2,1.3-0.2,1.9l5.1,0C162,18.6,162,18,161.8,17.3"/>
			</g>
		</g>
	</g>
</g>
<g id="Beeldmerk">
	<g>
		<defs>
			<rect id="SVGID_1_" x="2.7" y="8.1" width="38.1" height="18.9"/>
		</defs>
		<clipPath id="SVGID_2_">
			<use xlink:href="#SVGID_1_"  style="overflow:visible;"/>
		</clipPath>
		<g class="st2">
			<defs>
				<rect id="SVGID_3_" x="4.3" y="8.1" width="35.1" height="18.9"/>
			</defs>
			<clipPath id="SVGID_4_">
				<use xlink:href="#SVGID_3_"  style="overflow:visible;"/>
			</clipPath>
			<g class="st3">
				<defs>
					<rect id="SVGID_5_" x="-94.3" y="-57.3" width="246.6" height="346"/>
				</defs>
				<clipPath id="SVGID_6_">
					<use xlink:href="#SVGID_5_"  style="overflow:visible;"/>
				</clipPath>
				<g class="st4">
					<defs>
						<rect id="SVGID_7_" x="4.6" y="8.3" width="34.7" height="18.6"/>
					</defs>
					<clipPath id="SVGID_8_">
						<use xlink:href="#SVGID_7_"  style="overflow:visible;"/>
					</clipPath>
					<path class="st5" d="M39.3,16.8H4.6c0.1,0.1,1.2,1.7,1.3,1.9c0.8,0.9,2.5,3.5,6.9,5.7c3.5,1.7,6,2.6,9.4,2.6h0.4
						c1.5,0,3.1-0.2,5-0.5C34.4,25.5,39.1,17.1,39.3,16.8"/>
					<path class="st6" d="M20.7,8.3h-0.9c-9.2,0.2-13,5.9-13.7,6.7c-1,1.2-1.6,1.8-1.6,1.8s0,0,0,0h34.7c0,0,0,0,0,0
						s-7.4-8.1-18.2-8.5C21,8.3,20.8,8.3,20.7,8.3"/>
					<path class="st5" d="M20.7,8.3h-0.9c-9.2,0.2-13,5.9-13.7,6.7c-1,1.2-1.6,1.8-1.6,1.8s0,0,0,0h34.7c0,0,0,0,0,0
						s-7.4-8.1-18.2-8.5C21,8.3,20.8,8.3,20.7,8.3"/>
				</g>
			</g>
		</g>
	</g>
	<g>
		<defs>
			<rect id="SVGID_9_" x="2.7" y="8.1" width="38.1" height="18.9"/>
		</defs>
		<clipPath id="SVGID_10_">
			<use xlink:href="#SVGID_9_"  style="overflow:visible;"/>
		</clipPath>
		<g class="st7">
			<defs>
				<rect id="SVGID_11_" x="4.3" y="8.1" width="35.1" height="18.9"/>
			</defs>
			<clipPath id="SVGID_12_">
				<use xlink:href="#SVGID_11_"  style="overflow:visible;"/>
			</clipPath>
			<g class="st8">
				<defs>
					<rect id="SVGID_13_" x="-94.3" y="-57.3" width="246.6" height="346"/>
				</defs>
				<clipPath id="SVGID_14_">
					<use xlink:href="#SVGID_13_"  style="overflow:visible;"/>
				</clipPath>
				<path class="st9" d="M8.4,15.9c0.4-0.7,4.4-6.1,13.1-5.3c8.7,0.7,14.7,6.1,14.8,6.7c0.1,0.4-4.3,6.6-10.1,7.4
					c-4.7,0.6-7.4-0.1-11.8-2.3c-4.4-2.2-5.3-3.6-5.7-4.2C8.4,17.6,7.9,16.7,8.4,15.9"/>
				<path class="st10" d="M19.8,10.5c0,0,0.6,0,1.7,0.1c1,0.1,1.8,0.2,1.8,0.2s6.6,2.2,6.9,6.5c0.4,5.2-4,7.4-4,7.4
					s-2.2,0.3-4.2,0.1c-2-0.2-3.8-0.8-3.8-0.8s-5-1.6-4.6-7C13.9,11.7,19.8,10.5,19.8,10.5"/>
				<path class="st11" d="M28.5,18.3c-0.1,2.7-3,5.3-6.4,5.2c-3.5-0.1-6.8-2.8-6.9-5.9c-0.1-3.5,3.3-5.4,6.8-5.3
					C25.4,12.4,28.6,15.6,28.5,18.3"/>
				<path class="st12" d="M25,18.1c0,1.2-1.3,2.4-2.9,2.4c-1.6,0-3-1.3-3.1-2.7c-0.2-1.8,1.5-2.4,3.1-2.4C23.6,15.4,25,16.9,25,18.1
					"/>
			</g>
		</g>
	</g>
</g>
</svg>
